<svg width="194" height="187" fill="none" xmlns="http://www.w3.org/2000/svg"><g clip-path="url(#a)"><path d="M193.8 148.4c1.8 26.8-46.5 42.3-90.1 37.8-16.3-1.7-37.3-9.4-62.5-12.6C16.8 170.5 0 164.5 0 147.5c0-22 42.7-38.5 98-38.8 59.9-.2 93.9 11.8 95.8 39.7z" fill="#D2E3FC"/><path d="M46.3 148.7c-2.6.1-5.3 0-8-.6-1.3-.3-2.6-.8-3.9-1.5-.6-.4-1.2-.8-1.7-1.4-.5-.6-.9-1.4-1-2.4 0-.6.4-1 .9-1.1.6 0 1 .4 1.1.9v.1c0 .4.1.9.4 1.3.3.4.7.9 1.2 1.2.9.8 2.1 1.3 3.3 1.8 2.4 1 5 1.5 7.7 1.7z" fill="#E8F0FE"/><path d="M83.9 120.5c-2.2-.5-4.5-.8-6.7-.8s-4.5.2-6.6.6c-2.2.4-4.3 1-6.3 1.9-1 .4-2 .9-2.8 1.4-.5.3-.8.5-1.2.8-.2.1-.3.3-.4.4-.1.1-.1.2-.2.3l-.6.5c-.8.7-2 .6-2.7-.2-.7-.8-.6-1.9 0-2.6.3-.3.6-.7.9-.9l.9-.6c.6-.3 1.2-.6 1.7-.9 1.2-.5 2.3-.8 3.5-1.1 2.3-.6 4.7-.9 7-1 2.3-.1 4.7 0 6.9.4 2.3.3 4.5.9 6.6 1.8zm-6.4 23.1c2.6-.5 5.2-1.2 7.3-2.4 1.1-.6 2-1.4 2.7-2.3.7-.9 1.2-1.9 1.5-3 .2-.8 1-1.3 1.8-1.1.8.2 1.3 1 1.1 1.8 0 .1-.1.2-.1.3-.6 1.4-1.6 2.6-2.7 3.6s-2.4 1.6-3.7 2.1c-2.6.9-5.3 1-7.9 1z" fill="#AECBFA"/><path d="M65.7 155.3c-3.6.2-7.2.2-10.8.1-3.6-.1-7.2-.4-10.8-1-3.6-.5-7.2-1.3-10.7-2.5-1.8-.6-3.5-1.4-5.2-2.5-.8-.6-1.7-1.2-2.4-2.2-.7-.9-1.3-2.2-1.4-3.6v-.3c0-1.1.8-2 2-2.1 1.1 0 2 .8 2.1 2v.4c-.1.7.6 2 1.9 3 1.2 1 2.7 1.8 4.2 2.6 3.1 1.5 6.5 2.5 10 3.3 3.4.8 7 1.5 10.5 1.9 3.4.5 7 .7 10.6.9zm31-38.6c8.4 0 16.9.5 25.2 1.7 4.2.6 8.4 1.5 12.5 2.8 2.1.7 4.1 1.5 6.1 2.6 1 .6 2 1.2 2.9 2.2.5.5.9 1 1.2 1.7.4.7.6 1.5.6 2.4v.1c0 1.1-.8 2-2 2.1-1.1 0-2-.8-2.1-2v-.3c0-.3-.1-.9-.6-1.5s-1.2-1.2-2-1.7c-1.6-1.1-3.4-2-5.3-2.7-3.8-1.5-7.8-2.7-11.9-3.7-7.9-1.9-16.2-3-24.6-3.7zm-12.9 21.4c-3.1 1.9-6.3 2.7-9.5 3.2s-6.4.4-9.5.1c-3.1-.3-6.2-1-9-2.2-1.4-.6-2.8-1.3-4-2.4-.6-.5-1.1-1.1-1.5-1.7-.4-.7-.6-1.4-.6-2.2.1 1.5 1.3 2.6 2.5 3.4 1.2.8 2.6 1.2 4 1.6 2.8.7 5.8.9 8.7.7 2.9-.1 5.7-.7 8.4-1.6 2.6-.9 5.2-2.2 6.9-3.8 1.2-1.1 3.1-1 4.3.2 1.1 1.2 1 3.1-.2 4.3-.1.1-.2.2-.5.4z" fill="#E8F0FE"/><path d="M71 .5v120.9" stroke="#669DF6" stroke-width=".5" stroke-miterlimit="10"/><path d="M80.4 129.6s-1.3.1-4.6 2.8c-1.9 1.5-4.8 2.4-6.7 2.3-3.2-.1-5.4-1.5-6.4-2.6-.1-.6-.2-1.1-.2-1.7 0-1.2.2-2.3.6-3.3.1-.2.1-.3.2-.5 1.4-3.1 4.5-5.2 8.2-5.2 1.4 0 2.7.3 3.9.9.3.1.5.3.8.4 2.3 1.5 3.9 4 4.2 6.9z" fill="url(#b)"/><path opacity=".5" d="M75.3 122.3c-.9 3.3-3.9 5.8-7.5 5.8-1.7 0-3.2-.5-4.5-1.4 1.4-3.1 4.5-5.2 8.2-5.2 1.3-.1 2.6.3 3.8.8z" fill="url(#c)"/><path d="M170.9 97.5c0 6.6-6.9 6.4-15.5 6.4s-15.5 0-15.5-7.7c0-8.5 4.9-13.3 15.5-10.2 8.4 2.4 15.5 5.6 15.5 11.5z" fill="url(#d)"/><path d="M164.5 100.3c0 .8-.7 1.5-1.5 1.5s-1.5-.7-1.5-1.5c.1-12.4-1.9-24.9-6.2-36.6-4.1-11.7-10.5-22.7-18.8-32.1-5-5.7-10.7-10.8-16.9-15.2C105.4 6.7 88.5 1 70.4 1c-.3 0-.5-.2-.5-.5s.2-.5.5-.5c16.4 0 31.8 4.6 45.2 12.7.4.3.9.5 1.3.8 7.7 4.7 14.7 10.5 20.7 17.2 8.6 9.4 15.3 20.4 19.8 32.3 4.6 11.8 7 24.6 7.1 37.3z" fill="url(#e)"/><path d="M179.9 103c0 5.5-3.3 5.5-11 5.5-8.1 0-11 .2-11-4.6 0-4.7 4.9-7.5 11-7.5 7.6 0 11 .5 11 6.6z" fill="url(#f)"/><path d="M137 100.2c0 4-4.1 3.7-9.1 3.7s-9.1.4-9.1-3.7c0-4 4.1-5 9.1-5s9.1 1 9.1 5z" fill="url(#g)"/></g><defs><linearGradient id="b" x1="71.391" y1="115.225" x2="71.391" y2="139.29" gradientUnits="userSpaceOnUse"><stop offset=".59" stop-color="#4285F4"/><stop offset=".948" stop-color="#1967D2"/></linearGradient><linearGradient id="c" x1="69.23" y1="120.359" x2="69.323" y2="132.701" gradientUnits="userSpaceOnUse"><stop offset=".034" stop-color="#AECBFA"/><stop offset=".783" stop-color="#4285F4"/></linearGradient><linearGradient id="d" x1="131.848" y1="85.475" x2="176.404" y2="106.439" gradientUnits="userSpaceOnUse"><stop offset=".248" stop-color="#F1F3F4"/><stop offset=".758" stop-color="#BDC1C6"/></linearGradient><linearGradient id="e" x1="69.933" y1="50.925" x2="164.534" y2="50.925" gradientUnits="userSpaceOnUse"><stop offset=".183" stop-color="#8AB4F8"/><stop offset=".902" stop-color="#4285F4"/></linearGradient><linearGradient id="f" x1="158.538" y1="100.892" x2="189.104" y2="105.939" gradientUnits="userSpaceOnUse"><stop stop-color="#F1F3F4"/><stop offset=".304" stop-color="#D8DBDE"/><stop offset=".624" stop-color="#C4C8CC"/><stop offset=".841" stop-color="#BDC1C6"/></linearGradient><linearGradient id="g" x1="127.888" y1="88.72" x2="127.888" y2="107.712" gradientUnits="userSpaceOnUse"><stop offset=".142" stop-color="#F8F9FA"/><stop offset=".984" stop-color="#DADCE0"/></linearGradient><clipPath id="a"><path fill="#fff" d="M0 0h193.8v187H0z"/></clipPath></defs></svg>